<svg xmlns="http://www.w3.org/2000/svg" xmlns:xlink="http://www.w3.org/1999/xlink" width="500" zoomAndPan="magnify" viewBox="0 0 375 374.999991" height="500" preserveAspectRatio="xMidYMid meet" version="1.0"><defs><clipPath id="a73973fbd0"><path d="M 98 229 L 334.238281 229 L 334.238281 309 L 98 309 Z M 98 229 " clip-rule="nonzero"/></clipPath><clipPath id="76a09b5284"><path d="M 143 61.5 L 334.238281 61.5 L 334.238281 218 L 143 218 Z M 143 61.5 " clip-rule="nonzero"/></clipPath><clipPath id="bf0eb362f6"><path d="M 41 70 L 182 70 L 182 313.5 L 41 313.5 Z M 41 70 " clip-rule="nonzero"/></clipPath></defs><rect x="-37.5" width="450" fill="#ffffff" y="-37.499999" height="449.999989" fill-opacity="1"/><rect x="-37.5" width="450" fill="#ffffff" y="-37.499999" height="449.999989" fill-opacity="1"/><rect x="-37.5" width="450" fill="#ffffff" y="-37.499999" height="449.999989" fill-opacity="1"/><path fill="#6e11af" d="M 279.714844 304.492188 L 106.554688 304.492188 L 153.496094 234.019531 L 326.652344 234.019531 Z M 279.714844 304.492188 " fill-opacity="1" fill-rule="nonzero"/><g clip-path="url(#a73973fbd0)"><path fill="#6e11af" d="M 281.890625 308.554688 L 98.96875 308.554688 L 151.320312 229.957031 L 334.242188 229.957031 Z M 114.144531 300.429688 L 277.535156 300.429688 L 319.066406 238.082031 L 155.675781 238.082031 Z M 114.144531 300.429688 " fill-opacity="1" fill-rule="nonzero"/></g><path fill="#6e11af" d="M 229.78125 65.632812 L 326.652344 210.847656 L 248.082031 212.921875 L 151.210938 67.707031 Z M 229.78125 65.632812 " fill-opacity="1" fill-rule="nonzero"/><g clip-path="url(#76a09b5284)"><path fill="#6e11af" d="M 245.945312 217.042969 L 143.746094 63.839844 L 231.917969 61.511719 L 334.117188 214.714844 Z M 158.675781 71.574219 L 250.21875 208.804688 L 319.1875 206.984375 L 227.644531 69.753906 Z M 158.675781 71.574219 " fill-opacity="1" fill-rule="nonzero"/></g><path fill="#6e11af" d="M 176.796875 149.878906 L 77.539062 304.492188 L 45.523438 218.40625 L 135.574219 78.132812 Z M 176.796875 149.878906 " fill-opacity="1" fill-rule="nonzero"/><g clip-path="url(#bf0eb362f6)"><path fill="#6e11af" d="M 76.566406 313.535156 L 41.007812 217.917969 L 135.765625 70.308594 L 181.550781 149.996094 Z M 50.042969 218.890625 L 78.515625 295.453125 L 172.039062 149.761719 L 135.382812 85.957031 Z M 50.042969 218.890625 " fill-opacity="1" fill-rule="nonzero"/></g></svg>