<svg xmlns="http://www.w3.org/2000/svg" xmlns:xlink="http://www.w3.org/1999/xlink" width="500" zoomAndPan="magnify" viewBox="0 0 375 374.999991" height="500" preserveAspectRatio="xMidYMid meet" version="1.0"><defs><clipPath id="dc4af66b8e"><path d="M 67.585938 67.585938 L 307.585938 67.585938 L 307.585938 307.585938 L 67.585938 307.585938 Z M 67.585938 67.585938 " clip-rule="nonzero"/></clipPath></defs><rect x="-37.5" width="450" fill="#ffffff" y="-37.499999" height="449.999989" fill-opacity="1"/><rect x="-37.5" width="450" fill="#ffffff" y="-37.499999" height="449.999989" fill-opacity="1"/><rect x="-37.5" width="450" fill="#ffffff" y="-37.499999" height="449.999989" fill-opacity="1"/><g clip-path="url(#dc4af66b8e)"><path fill="#622dcd" d="M 187.585938 67.585938 C 121.417969 67.585938 67.585938 121.417969 67.585938 187.585938 C 67.585938 253.757812 121.417969 307.585938 187.585938 307.585938 C 253.757812 307.585938 307.585938 253.757812 307.585938 187.585938 C 307.585938 121.417969 253.757812 67.585938 187.585938 67.585938 Z M 240.980469 190.460938 C 240.210938 193.324219 238.378906 195.714844 235.816406 197.191406 L 171.796875 234.15625 C 170.109375 235.128906 168.195312 235.636719 166.25 235.636719 C 160.128906 235.636719 155.15625 230.667969 155.15625 224.550781 L 155.15625 150.632812 C 155.15625 148.683594 155.667969 146.765625 156.636719 145.078125 C 159.582031 139.972656 166.667969 138.058594 171.789062 141.023438 L 235.8125 177.988281 C 237.5 178.957031 238.898438 180.367188 239.867188 182.046875 C 241.351562 184.605469 241.761719 187.597656 240.980469 190.460938 Z M 240.980469 190.460938 " fill-opacity="1" fill-rule="nonzero"/></g></svg>